<svg xmlns="http://www.w3.org/2000/svg" width="64" height="64" fill="none"><path fill="url(#a)" stroke="#fff" stroke-linejoin="round" stroke-width="3.64" d="m58.737 22.043-.011-.028c-.659-1.584-1.638-3.197-2.704-4.548-1.04-1.317-2.293-2.556-3.564-3.213a1.82 1.82 0 0 0-2.009.225 78.074 78.074 0 0 0-.502-.587c-.452-.525-.902-1.035-1.349-1.542-1.802-2.044-3.547-4.024-5.168-6.586l-.006-.01c-.206-.32-.405-.644-.599-.972a6.742 6.742 0 0 1-.25-.473 3.101 3.101 0 0 1-.24-.616 1.89 1.89 0 0 0-1.488-1.475 1.92 1.92 0 0 0-.541-.031 1.816 1.816 0 0 0-.806.246c-6.625 3.88-9.339 10.628-10.033 14.955a15.342 15.342 0 0 0-5.075 1.824 10.714 10.714 0 0 1 .27-4 1.82 1.82 0 0 0-2.555-2.097 21.842 21.842 0 0 0-4.79 3.158l-.014-.174c-.1-1.312-.067-2.579-.041-2.97a1.82 1.82 0 0 0-2.495-1.807 6.655 6.655 0 0 0-1.281.686 21.522 21.522 0 0 0-2.884 2.47 25.435 25.435 0 0 0-2.715 3.258 24.66 24.66 0 0 0-3.924 8.88l-.036.178a27.585 27.585 0 0 0-.747 5.835V32.771c.02 22.213 24.077 36.076 43.304 24.953l-.912-1.576.912 1.575a28.856 28.856 0 0 0 13.997-20.148c.036-.275.067-.554.097-.817l.028-.25a29.626 29.626 0 0 0-1.869-14.465ZM39.35 2.547Z"/><path fill="url(#b)" d="M57.045 22.713c-1.175-2.826-3.557-5.878-5.423-6.843a28.095 28.095 0 0 1 2.738 8.206v.026l.005.029a24.487 24.487 0 0 1-.842 18.247c-3.098 6.648-10.598 13.463-22.337 13.131-12.684-.359-23.854-9.772-25.943-22.1-.38-1.945 0-2.93.192-4.51A20.136 20.136 0 0 0 5 32.629v.14c.018 20.813 22.558 33.801 40.572 23.379a27.035 27.035 0 0 0 13.104-18.807c.045-.349.082-.694.123-1.047a27.805 27.805 0 0 0-1.754-13.58Z"/><path fill="url(#c)" d="M57.045 22.713c-1.175-2.826-3.557-5.878-5.423-6.843a28.095 28.095 0 0 1 2.738 8.206v.026l.005.029a24.487 24.487 0 0 1-.842 18.247c-3.098 6.648-10.598 13.463-22.337 13.131-12.684-.359-23.854-9.772-25.943-22.1-.38-1.945 0-2.93.192-4.51A20.136 20.136 0 0 0 5 32.629v.14c.018 20.813 22.558 33.801 40.572 23.379a27.035 27.035 0 0 0 13.104-18.807c.045-.349.082-.694.123-1.047a27.805 27.805 0 0 0-1.754-13.58Z"/><path fill="url(#d)" d="M43.908 25.892c.059.04.113.082.169.123a14.721 14.721 0 0 0-2.511-3.275c-8.403-8.404-2.203-18.223-1.157-18.721l.01-.016c-6.79 3.977-9.094 11.337-9.306 15.019.316-.022.628-.048.95-.048a13.643 13.643 0 0 1 11.845 6.918Z"/><path fill="url(#e)" d="M32.08 27.57c-.044.673-2.42 2.992-3.25 2.992-7.688 0-8.936 4.65-8.936 4.65.34 3.917 3.07 7.142 6.368 8.848.15.079.303.15.456.218.262.116.526.225.794.325 1.132.401 2.317.63 3.517.679 13.474.632 16.084-16.114 6.36-20.973a9.331 9.331 0 0 1 6.519 1.583 13.644 13.644 0 0 0-11.845-6.918c-.32 0-.635.026-.95.048a13.522 13.522 0 0 0-7.44 2.868c.413.349.878.815 1.858 1.78 1.834 1.808 6.539 3.68 6.55 3.9Z"/><path fill="url(#f)" d="M32.08 27.57c-.044.673-2.42 2.992-3.25 2.992-7.688 0-8.936 4.65-8.936 4.65.34 3.917 3.07 7.142 6.368 8.848.15.079.303.15.456.218.262.116.526.225.794.325 1.132.401 2.317.63 3.517.679 13.474.632 16.084-16.114 6.36-20.973a9.331 9.331 0 0 1 6.519 1.583 13.644 13.644 0 0 0-11.845-6.918c-.32 0-.635.026-.95.048a13.522 13.522 0 0 0-7.44 2.868c.413.349.878.815 1.858 1.78 1.834 1.808 6.539 3.68 6.55 3.9Z"/><path fill="url(#g)" d="M22.413 20.99c.188.12.375.244.558.371a12.533 12.533 0 0 1-.076-6.608 20.023 20.023 0 0 0-6.507 5.03c.132-.004 4.053-.075 6.025 1.208Z"/><path fill="url(#h)" d="M5.247 33.409c2.086 12.328 13.259 21.741 25.943 22.1 11.739.333 19.238-6.483 22.337-13.131a24.486 24.486 0 0 0 .84-18.247v-.026c0-.02-.003-.032 0-.026l.006.046c.959 6.262-2.226 12.329-7.205 16.43l-.015.036c-9.701 7.901-18.985 4.767-20.864 3.487a13.711 13.711 0 0 1-.393-.195c-5.657-2.704-7.993-7.858-7.492-12.278A6.942 6.942 0 0 1 12 27.577a10.196 10.196 0 0 1 9.939-.399 13.461 13.461 0 0 0 10.15.399c-.01-.22-4.715-2.093-6.55-3.9-.98-.965-1.445-1.43-1.857-1.78a8.048 8.048 0 0 0-.698-.53c-.16-.109-.34-.227-.558-.37-1.971-1.282-5.893-1.211-6.023-1.208h-.012c-1.072-1.358-.996-5.836-.935-6.772-.317.128-.62.288-.902.48a19.69 19.69 0 0 0-2.643 2.263 23.644 23.644 0 0 0-2.537 3.026v.004-.005a22.839 22.839 0 0 0-3.627 8.191c-.013.055-.974 4.255-.5 6.433Z"/><path fill="url(#i)" d="M41.567 22.74c.987.97 1.832 2.073 2.51 3.279.14.104.276.215.406.332 6.129 5.65 2.918 13.637 2.678 14.206 4.98-4.103 8.161-10.17 7.205-16.432-3.058-7.624-8.241-10.697-12.474-17.388-.219-.341-.431-.686-.637-1.035a8.582 8.582 0 0 1-.298-.558c-.175-.34-.31-.7-.403-1.07a.07.07 0 0 0-.062-.07.1.1 0 0 0-.05 0c-.004 0-.01.006-.014.007s-.013.008-.02.01c-1.045.496-7.245 10.315 1.159 18.719Z"/><path fill="url(#j)" d="M44.479 26.347a5.7 5.7 0 0 0-.405-.332c-.055-.041-.11-.082-.168-.123a9.332 9.332 0 0 0-6.519-1.583c9.724 4.862 7.115 21.605-6.36 20.973-1.2-.05-2.386-.278-3.518-.679-.267-.1-.532-.209-.793-.325-.153-.07-.306-.14-.457-.218l.02.012c1.878 1.283 11.16 4.417 20.863-3.488l.015-.034c.242-.566 3.454-8.554-2.678-14.203Z"/><path fill="url(#k)" d="M19.894 35.212s1.248-4.65 8.936-4.65c.83 0 3.208-2.32 3.25-2.992a13.46 13.46 0 0 1-10.15-.4 10.197 10.197 0 0 0-9.938.4 6.943 6.943 0 0 0 6.403 4.028c-.5 4.421 1.836 9.575 7.492 12.278.127.06.245.126.375.184-3.301-1.706-6.027-4.931-6.368-8.848Z"/><path fill="url(#l)" d="M57.045 22.714c-1.175-2.827-3.557-5.879-5.423-6.844a28.094 28.094 0 0 1 2.738 8.207l.005.045c-3.057-7.621-8.24-10.694-12.473-17.385a32.563 32.563 0 0 1-.637-1.035 8.583 8.583 0 0 1-.298-.558 4.92 4.92 0 0 1-.403-1.07.07.07 0 0 0-.062-.07.099.099 0 0 0-.05 0c-.004 0-.01.006-.014.007s-.013.008-.019.01l.01-.018c-6.79 3.977-9.094 11.337-9.306 15.02.316-.023.628-.05.95-.05a13.642 13.642 0 0 1 11.845 6.919 9.332 9.332 0 0 0-6.518-1.583c9.723 4.862 7.115 21.605-6.36 20.973a12.02 12.02 0 0 1-3.518-.679c-.268-.1-.532-.209-.794-.325-.152-.07-.305-.14-.456-.218l.019.012a14.55 14.55 0 0 1-.394-.196c.127.061.245.127.375.184-3.301-1.706-6.027-4.931-6.367-8.848 0 0 1.247-4.65 8.935-4.65.83 0 3.208-2.32 3.25-2.992-.01-.22-4.714-2.093-6.549-3.9-.98-.966-1.445-1.43-1.857-1.78a8.077 8.077 0 0 0-.698-.529 12.537 12.537 0 0 1-.076-6.608 20.02 20.02 0 0 0-6.507 5.03h-.012c-1.072-1.359-.997-5.837-.935-6.773-.317.128-.62.288-.903.48a19.71 19.71 0 0 0-2.642 2.263 23.615 23.615 0 0 0-2.527 3.033v.004-.005a22.838 22.838 0 0 0-3.627 8.191l-.036.179c-.051.238-.28 1.446-.312 1.705 0-.02 0 .02 0 0A31.47 31.47 0 0 0 5 32.63v.139c.018 20.813 22.558 33.801 40.572 23.38A27.035 27.035 0 0 0 58.676 37.34c.045-.349.082-.694.123-1.047a27.805 27.805 0 0 0-1.754-13.58Z"/><defs><radialGradient id="b" cx="0" cy="0" r="1" gradientTransform="matrix(56.3564 0 0 56.3612 51.394 10.191)" gradientUnits="userSpaceOnUse"><stop offset=".129" stop-color="#FFBD4F"/><stop offset=".186" stop-color="#FFAC31"/><stop offset=".247" stop-color="#FF9D17"/><stop offset=".283" stop-color="#FF980E"/><stop offset=".403" stop-color="#FF563B"/><stop offset=".467" stop-color="#FF3750"/><stop offset=".71" stop-color="#F5156C"/><stop offset=".782" stop-color="#EB0878"/><stop offset=".86" stop-color="#E50080"/></radialGradient><radialGradient id="c" cx="0" cy="0" r="1" gradientTransform="matrix(56.3564 0 0 56.3612 30.801 33.233)" gradientUnits="userSpaceOnUse"><stop offset=".3" stop-color="#960E18"/><stop offset=".351" stop-color="#B11927" stop-opacity=".74"/><stop offset=".435" stop-color="#DB293D" stop-opacity=".343"/><stop offset=".497" stop-color="#F5334B" stop-opacity=".094"/><stop offset=".53" stop-color="#FF3750" stop-opacity="0"/></radialGradient><radialGradient id="d" cx="0" cy="0" r="1" gradientTransform="matrix(40.8278 0 0 40.8313 37.596 -2.6)" gradientUnits="userSpaceOnUse"><stop offset=".132" stop-color="#FFF44F"/><stop offset=".252" stop-color="#FFDC3E"/><stop offset=".506" stop-color="#FF9D12"/><stop offset=".526" stop-color="#FF980E"/></radialGradient><radialGradient id="e" cx="0" cy="0" r="1" gradientTransform="matrix(26.8338 0 0 26.8361 24.567 47.956)" gradientUnits="userSpaceOnUse"><stop offset=".353" stop-color="#3A8EE6"/><stop offset=".472" stop-color="#5C79F0"/><stop offset=".669" stop-color="#9059FF"/><stop offset="1" stop-color="#C139E6"/></radialGradient><radialGradient id="f" cx="0" cy="0" r="1" gradientTransform="matrix(13.82872 -3.34363 3.91484 16.19114 33.889 28.615)" gradientUnits="userSpaceOnUse"><stop offset=".206" stop-color="#9059FF" stop-opacity="0"/><stop offset=".278" stop-color="#8C4FF3" stop-opacity=".064"/><stop offset=".747" stop-color="#7716A8" stop-opacity=".45"/><stop offset=".975" stop-color="#6E008B" stop-opacity=".6"/></radialGradient><radialGradient id="g" cx="0" cy="0" r="1" gradientTransform="matrix(19.3042 0 0 19.3058 30.09 7.886)" gradientUnits="userSpaceOnUse"><stop stop-color="#FFE226"/><stop offset=".121" stop-color="#FFDB27"/><stop offset=".295" stop-color="#FFC82A"/><stop offset=".502" stop-color="#FFA930"/><stop offset=".732" stop-color="#FF7E37"/><stop offset=".792" stop-color="#FF7139"/></radialGradient><radialGradient id="h" cx="0" cy="0" r="1" gradientTransform="matrix(82.3623 0 0 82.3693 45.263 -4.36)" gradientUnits="userSpaceOnUse"><stop offset=".113" stop-color="#FFF44F"/><stop offset=".456" stop-color="#FF980E"/><stop offset=".622" stop-color="#FF5634"/><stop offset=".716" stop-color="#FF3647"/><stop offset=".904" stop-color="#E31587"/></radialGradient><radialGradient id="i" cx="0" cy="0" r="1" gradientTransform="matrix(6.33495 60.0371 -39.39858 4.15723 38.334 .219)" gradientUnits="userSpaceOnUse"><stop stop-color="#FFF44F"/><stop offset=".06" stop-color="#FFE847"/><stop offset=".168" stop-color="#FFC830"/><stop offset=".304" stop-color="#FF980E"/><stop offset=".356" stop-color="#FF8B16"/><stop offset=".455" stop-color="#FF672A"/><stop offset=".57" stop-color="#FF3647"/><stop offset=".737" stop-color="#E31587"/></radialGradient><radialGradient id="j" cx="0" cy="0" r="1" gradientTransform="matrix(51.4202 0 0 51.4246 29.635 15.036)" gradientUnits="userSpaceOnUse"><stop offset=".137" stop-color="#FFF44F"/><stop offset=".48" stop-color="#FF980E"/><stop offset=".592" stop-color="#FF5634"/><stop offset=".655" stop-color="#FF3647"/><stop offset=".904" stop-color="#E31587"/></radialGradient><radialGradient id="k" cx="0" cy="0" r="1" gradientTransform="matrix(56.279 0 0 56.2838 43.208 18.046)" gradientUnits="userSpaceOnUse"><stop offset=".094" stop-color="#FFF44F"/><stop offset=".231" stop-color="#FFE141"/><stop offset=".509" stop-color="#FFAF1E"/><stop offset=".626" stop-color="#FF980E"/></radialGradient><linearGradient id="a" x1="53.467" x2="8.586" y1="12.642" y2="55.94" gradientUnits="userSpaceOnUse"><stop offset=".048" stop-color="#FFF44F"/><stop offset=".111" stop-color="#FFE847"/><stop offset=".225" stop-color="#FFC830"/><stop offset=".368" stop-color="#FF980E"/><stop offset=".401" stop-color="#FF8B16"/><stop offset=".462" stop-color="#FF672A"/><stop offset=".534" stop-color="#FF3647"/><stop offset=".705" stop-color="#E31587"/></linearGradient><linearGradient id="l" x1="52.928" x2="14.739" y1="12.41" y2="50.595" gradientUnits="userSpaceOnUse"><stop offset=".167" stop-color="#FFF44F" stop-opacity=".8"/><stop offset=".266" stop-color="#FFF44F" stop-opacity=".634"/><stop offset=".489" stop-color="#FFF44F" stop-opacity=".217"/><stop offset=".6" stop-color="#FFF44F" stop-opacity="0"/></linearGradient></defs></svg>