<svg xmlns="http://www.w3.org/2000/svg" width="64" height="64" fill="none"><rect width="63.87" height="63.87" x=".076" y=".054" fill="url(#a)" rx="14.877"/><g clip-path="url(#b)" filter="url(#c)"><path fill="url(#d)" stroke="#fff" stroke-linejoin="round" stroke-width="2.73" d="m52.053 24.532-.009-.02c-.493-1.189-1.228-2.398-2.028-3.412-.779-.988-1.72-1.917-2.673-2.41a1.365 1.365 0 0 0-1.506.169c-.125-.148-.25-.295-.377-.44-.339-.393-.677-.776-1.011-1.156-1.352-1.534-2.66-3.018-3.877-4.94l-.004-.007c-.154-.24-.304-.484-.449-.73a5.096 5.096 0 0 1-.188-.354 2.321 2.321 0 0 1-.18-.462 1.417 1.417 0 0 0-1.116-1.106 1.439 1.439 0 0 0-.405-.024 1.362 1.362 0 0 0-.605.185c-4.969 2.91-7.004 7.971-7.524 11.216-1.341.228-2.63.692-3.807 1.368-.121-1-.054-2.018.202-3a1.365 1.365 0 0 0-1.916-1.573c-1.3.63-2.507 1.427-3.592 2.369a18.483 18.483 0 0 1-.041-2.357 1.365 1.365 0 0 0-1.872-1.357 5 5 0 0 0-.96.515 16.158 16.158 0 0 0-2.163 1.852 19.085 19.085 0 0 0-2.037 2.444 18.496 18.496 0 0 0-2.937 6.633l-.006.027-.027.134-.006.031a33.577 33.577 0 0 0-.211 1.348 20.69 20.69 0 0 0-.343 2.997v.105c.014 16.661 18.058 27.059 32.478 18.716a21.643 21.643 0 0 0 10.498-15.111c.026-.207.05-.416.072-.614l.022-.187a22.22 22.22 0 0 0-1.402-10.849ZM37.512 9.91Z"/><path fill="url(#e)" d="M50.784 25.035c-.881-2.12-2.668-4.409-4.067-5.132a21.07 21.07 0 0 1 2.053 6.154v.02l.003.021a18.365 18.365 0 0 1-.63 13.685c-2.324 4.987-7.949 10.098-16.753 9.85-9.513-.27-17.891-7.33-19.457-16.577-.285-1.458 0-2.197.143-3.382-.196.92-.305 1.857-.326 2.798v.105c.014 15.61 16.919 25.35 30.43 17.534a20.277 20.277 0 0 0 9.827-14.105c.034-.262.062-.521.092-.785a20.856 20.856 0 0 0-1.315-10.186Z"/><path fill="url(#f)" d="M50.784 25.035c-.881-2.12-2.668-4.409-4.067-5.132a21.07 21.07 0 0 1 2.053 6.154v.02l.003.021a18.365 18.365 0 0 1-.63 13.685c-2.324 4.987-7.949 10.098-16.753 9.85-9.513-.27-17.891-7.33-19.457-16.577-.285-1.458 0-2.197.143-3.382-.196.92-.305 1.857-.326 2.798v.105c.014 15.61 16.919 25.35 30.43 17.534a20.277 20.277 0 0 0 9.827-14.105c.034-.262.062-.521.092-.785a20.856 20.856 0 0 0-1.315-10.186Z"/><path fill="url(#g)" d="M40.931 27.419c.044.03.085.061.126.092a11.041 11.041 0 0 0-1.883-2.456c-6.301-6.303-1.651-13.667-.867-14.041l.008-.012c-5.093 2.983-6.821 8.503-6.98 11.264.236-.016.47-.036.713-.036a10.23 10.23 0 0 1 8.883 5.189Z"/><path fill="url(#h)" d="M32.06 28.678c-.033.504-1.815 2.243-2.438 2.243-5.765 0-6.701 3.489-6.701 3.489.255 2.937 2.302 5.356 4.775 6.635.113.06.228.112.342.164.197.087.395.168.596.243.849.301 1.738.473 2.638.51 10.105.473 12.063-12.086 4.77-15.73a7 7 0 0 1 4.889 1.187 10.235 10.235 0 0 0-8.884-5.189c-.24 0-.476.02-.712.037-2.034.14-3.979.889-5.58 2.15.31.262.658.611 1.393 1.336 1.376 1.356 4.905 2.76 4.912 2.925Z"/><path fill="url(#i)" d="M32.06 28.678c-.033.504-1.815 2.243-2.438 2.243-5.765 0-6.701 3.489-6.701 3.489.255 2.937 2.302 5.356 4.775 6.635.113.06.228.112.342.164.197.087.395.168.596.243.849.301 1.738.473 2.638.51 10.105.473 12.063-12.086 4.77-15.73a7 7 0 0 1 4.889 1.187 10.235 10.235 0 0 0-8.884-5.189c-.24 0-.476.02-.712.037-2.034.14-3.979.889-5.58 2.15.31.262.658.611 1.393 1.336 1.376 1.356 4.905 2.76 4.912 2.925Z"/><path fill="url(#j)" d="M24.81 23.743c.141.09.28.183.418.278a9.399 9.399 0 0 1-.057-4.956 15.018 15.018 0 0 0-4.88 3.772c.099-.003 3.04-.056 4.519.906Z"/><path fill="url(#k)" d="M11.935 33.056c1.565 9.247 9.944 16.307 19.457 16.576 8.805.25 14.43-4.862 16.753-9.849a18.365 18.365 0 0 0 .631-13.685v-.019c0-.015-.003-.024 0-.02l.004.034c.719 4.697-1.67 9.247-5.404 12.324l-.011.026c-7.276 5.926-14.239 3.576-15.648 2.616-.1-.047-.198-.096-.295-.147-4.242-2.028-5.995-5.893-5.62-9.208A5.206 5.206 0 0 1 17 28.683a7.648 7.648 0 0 1 7.454-.3 10.096 10.096 0 0 0 7.613.3c-.008-.165-3.537-1.57-4.913-2.925-.735-.724-1.084-1.073-1.393-1.335a6.052 6.052 0 0 0-.523-.397c-.12-.082-.256-.171-.418-.278-1.48-.962-4.42-.909-4.518-.906h-.009c-.803-1.019-.747-4.377-.7-5.079a3.622 3.622 0 0 0-.678.36 14.769 14.769 0 0 0-1.982 1.697 17.73 17.73 0 0 0-1.903 2.27v.002-.003a17.13 17.13 0 0 0-2.72 6.143c-.01.042-.73 3.191-.375 4.825Z"/><path fill="url(#l)" d="M39.175 25.055c.74.727 1.374 1.555 1.883 2.459.105.078.207.161.304.249 4.597 4.238 2.188 10.228 2.01 10.654 3.733-3.076 6.12-7.626 5.403-12.323-2.294-5.718-6.181-8.023-9.356-13.041a24.577 24.577 0 0 1-.478-.777 6.427 6.427 0 0 1-.223-.418 3.69 3.69 0 0 1-.303-.803.052.052 0 0 0-.046-.053.075.075 0 0 0-.038 0c-.002 0-.007.005-.01.006l-.014.008c-.785.372-5.434 7.736.868 14.039Z"/><path fill="url(#m)" d="M41.36 27.76a4.286 4.286 0 0 0-.305-.249l-.126-.092a6.998 6.998 0 0 0-4.889-1.187c7.293 3.646 5.336 16.203-4.77 15.73a9.013 9.013 0 0 1-2.638-.51c-.2-.075-.4-.156-.595-.243-.115-.053-.23-.105-.342-.164l.014.01c1.409.961 8.37 3.312 15.647-2.617l.012-.026c.181-.424 2.59-6.415-2.009-10.652Z"/><path fill="url(#n)" d="M22.92 34.41s.937-3.489 6.702-3.489c.623 0 2.407-1.74 2.438-2.244-2.479.899-5.211.791-7.612-.299a7.647 7.647 0 0 0-7.454.3 5.207 5.207 0 0 0 4.803 3.02c-.376 3.316 1.376 7.181 5.619 9.209.094.045.183.095.28.138-2.475-1.28-4.52-3.699-4.775-6.636Z"/><path fill="url(#o)" d="M50.784 25.035c-.881-2.12-2.668-4.409-4.067-5.132a21.07 21.07 0 0 1 2.053 6.154l.003.035c-2.292-5.716-6.18-8.02-9.354-13.04a24.577 24.577 0 0 1-.478-.775 6.427 6.427 0 0 1-.223-.419 3.694 3.694 0 0 1-.303-.803.052.052 0 0 0-.046-.053.075.075 0 0 0-.038 0c-.002 0-.007.005-.01.006l-.014.008.008-.014c-5.093 2.983-6.821 8.503-6.98 11.265.236-.017.47-.037.712-.037a10.233 10.233 0 0 1 8.884 5.189 6.999 6.999 0 0 0-4.888-1.187c7.292 3.646 5.336 16.203-4.77 15.73a9.012 9.012 0 0 1-2.639-.51c-.2-.075-.4-.156-.595-.243-.115-.053-.23-.105-.342-.164l.014.01c-.1-.048-.198-.097-.295-.148.094.046.183.095.28.138-2.475-1.28-4.52-3.699-4.775-6.636 0 0 .936-3.488 6.701-3.488.623 0 2.407-1.74 2.439-2.244-.008-.164-3.537-1.569-4.913-2.924-.735-.725-1.084-1.074-1.393-1.336a6.064 6.064 0 0 0-.523-.396 9.401 9.401 0 0 1-.057-4.956 15.015 15.015 0 0 0-4.88 3.772h-.01c-.803-1.019-.747-4.378-.7-5.08a3.632 3.632 0 0 0-.678.36 14.776 14.776 0 0 0-1.981 1.698 17.715 17.715 0 0 0-1.895 2.274v.003-.003a17.129 17.129 0 0 0-2.72 6.143l-.028.134c-.038.179-.21 1.085-.234 1.28 0-.016 0 .014 0 0-.156.935-.256 1.879-.299 2.826v.105c.014 15.61 16.919 25.35 30.43 17.534a20.277 20.277 0 0 0 9.827-14.105c.034-.262.062-.52.092-.785a20.856 20.856 0 0 0-1.315-10.186Z"/></g><defs><radialGradient id="e" cx="0" cy="0" r="1" gradientTransform="matrix(42.2673 0 0 42.2709 46.546 15.644)" gradientUnits="userSpaceOnUse"><stop offset=".129" stop-color="#FFBD4F"/><stop offset=".186" stop-color="#FFAC31"/><stop offset=".247" stop-color="#FF9D17"/><stop offset=".283" stop-color="#FF980E"/><stop offset=".403" stop-color="#FF563B"/><stop offset=".467" stop-color="#FF3750"/><stop offset=".71" stop-color="#F5156C"/><stop offset=".782" stop-color="#EB0878"/><stop offset=".86" stop-color="#E50080"/></radialGradient><radialGradient id="f" cx="0" cy="0" r="1" gradientTransform="matrix(42.2673 0 0 42.2709 31.1 32.925)" gradientUnits="userSpaceOnUse"><stop offset=".3" stop-color="#960E18"/><stop offset=".351" stop-color="#B11927" stop-opacity=".74"/><stop offset=".435" stop-color="#DB293D" stop-opacity=".343"/><stop offset=".497" stop-color="#F5334B" stop-opacity=".094"/><stop offset=".53" stop-color="#FF3750" stop-opacity="0"/></radialGradient><radialGradient id="g" cx="0" cy="0" r="1" gradientTransform="matrix(30.6209 0 0 30.6235 36.197 6.05)" gradientUnits="userSpaceOnUse"><stop offset=".132" stop-color="#FFF44F"/><stop offset=".252" stop-color="#FFDC3E"/><stop offset=".506" stop-color="#FF9D12"/><stop offset=".526" stop-color="#FF980E"/></radialGradient><radialGradient id="h" cx="0" cy="0" r="1" gradientTransform="matrix(20.1253 0 0 20.127 26.425 43.967)" gradientUnits="userSpaceOnUse"><stop offset=".353" stop-color="#3A8EE6"/><stop offset=".472" stop-color="#5C79F0"/><stop offset=".669" stop-color="#9059FF"/><stop offset="1" stop-color="#C139E6"/></radialGradient><radialGradient id="i" cx="0" cy="0" r="1" gradientTransform="matrix(10.37154 -2.50772 2.93613 12.14338 33.417 29.462)" gradientUnits="userSpaceOnUse"><stop offset=".206" stop-color="#9059FF" stop-opacity="0"/><stop offset=".278" stop-color="#8C4FF3" stop-opacity=".064"/><stop offset=".747" stop-color="#7716A8" stop-opacity=".45"/><stop offset=".975" stop-color="#6E008B" stop-opacity=".6"/></radialGradient><radialGradient id="j" cx="0" cy="0" r="1" gradientTransform="matrix(14.4781 0 0 14.4794 30.567 13.914)" gradientUnits="userSpaceOnUse"><stop stop-color="#FFE226"/><stop offset=".121" stop-color="#FFDB27"/><stop offset=".295" stop-color="#FFC82A"/><stop offset=".502" stop-color="#FFA930"/><stop offset=".732" stop-color="#FF7E37"/><stop offset=".792" stop-color="#FF7139"/></radialGradient><radialGradient id="k" cx="0" cy="0" r="1" gradientTransform="matrix(61.7717 0 0 61.777 41.947 4.73)" gradientUnits="userSpaceOnUse"><stop offset=".113" stop-color="#FFF44F"/><stop offset=".456" stop-color="#FF980E"/><stop offset=".622" stop-color="#FF5634"/><stop offset=".716" stop-color="#FF3647"/><stop offset=".904" stop-color="#E31587"/></radialGradient><radialGradient id="l" cx="0" cy="0" r="1" gradientTransform="matrix(4.7512 45.02783 -29.54896 3.11792 36.75 8.164)" gradientUnits="userSpaceOnUse"><stop stop-color="#FFF44F"/><stop offset=".06" stop-color="#FFE847"/><stop offset=".168" stop-color="#FFC830"/><stop offset=".304" stop-color="#FF980E"/><stop offset=".356" stop-color="#FF8B16"/><stop offset=".455" stop-color="#FF672A"/><stop offset=".57" stop-color="#FF3647"/><stop offset=".737" stop-color="#E31587"/></radialGradient><radialGradient id="m" cx="0" cy="0" r="1" gradientTransform="matrix(38.5651 0 0 38.5684 30.226 19.277)" gradientUnits="userSpaceOnUse"><stop offset=".137" stop-color="#FFF44F"/><stop offset=".48" stop-color="#FF980E"/><stop offset=".592" stop-color="#FF5634"/><stop offset=".655" stop-color="#FF3647"/><stop offset=".904" stop-color="#E31587"/></radialGradient><radialGradient id="n" cx="0" cy="0" r="1" gradientTransform="matrix(42.2093 0 0 42.2129 40.406 21.535)" gradientUnits="userSpaceOnUse"><stop offset=".094" stop-color="#FFF44F"/><stop offset=".231" stop-color="#FFE141"/><stop offset=".509" stop-color="#FFAF1E"/><stop offset=".626" stop-color="#FF980E"/></radialGradient><linearGradient id="a" x1="32.011" x2="32.011" y1=".054" y2="63.924" gradientUnits="userSpaceOnUse"><stop stop-color="#fff" stop-opacity=".5"/><stop offset=".958" stop-color="#fff" stop-opacity=".75"/></linearGradient><linearGradient id="d" x1="48.1" x2="14.44" y1="17.482" y2="49.955" gradientUnits="userSpaceOnUse"><stop offset=".048" stop-color="#FFF44F"/><stop offset=".111" stop-color="#FFE847"/><stop offset=".225" stop-color="#FFC830"/><stop offset=".368" stop-color="#FF980E"/><stop offset=".401" stop-color="#FF8B16"/><stop offset=".462" stop-color="#FF672A"/><stop offset=".534" stop-color="#FF3647"/><stop offset=".705" stop-color="#E31587"/></linearGradient><linearGradient id="o" x1="47.696" x2="19.054" y1="17.308" y2="45.947" gradientUnits="userSpaceOnUse"><stop offset=".167" stop-color="#FFF44F" stop-opacity=".8"/><stop offset=".266" stop-color="#FFF44F" stop-opacity=".634"/><stop offset=".489" stop-color="#FFF44F" stop-opacity=".217"/><stop offset=".6" stop-color="#FFF44F" stop-opacity="0"/></linearGradient><clipPath id="b"><path fill="#fff" d="M8 8h48v48H8z"/></clipPath><filter id="c" width="53.96" height="55.331" x="5.02" y="4.27" color-interpolation-filters="sRGB" filterUnits="userSpaceOnUse"><feFlood flood-opacity="0" result="BackgroundImageFix"/><feColorMatrix in="SourceAlpha" result="hardAlpha" values="0 0 0 0 0 0 0 0 0 0 0 0 0 0 0 0 0 0 127 0"/><feOffset/><feGaussianBlur stdDeviation="2"/><feComposite in2="hardAlpha" operator="out"/><feColorMatrix values="0 0 0 0 0 0 0 0 0 0 0 0 0 0 0 0 0 0 0.25 0"/><feBlend in2="BackgroundImageFix" result="effect1_dropShadow_235_1674"/><feBlend in="SourceGraphic" in2="effect1_dropShadow_235_1674" result="shape"/></filter></defs></svg>